<svg width="16" height="16" viewBox="0 0 16 16" fill="none" xmlns="http://www.w3.org/2000/svg">
<rect width="16" height="16" rx="8" fill="#A1E633"/>
<path d="M5.06946 7.77693C4.61363 6.92867 4.97651 5.97086 5.87997 5.63759L11.6746 3.50002V3.50002C12.1305 4.34827 11.7676 5.30609 10.8641 5.63936L5.06946 7.77693V7.77693Z" fill="white"/>
<path d="M4.32535 10.1993C3.86952 9.35104 4.2324 8.39322 5.13586 8.05995L10.0674 6.24078V6.24078C10.5232 7.08903 10.1604 8.04684 9.25691 8.38012L4.32535 10.1993V10.1993Z" fill="white"/>
<path d="M5.8313 12.4647L5.94586 8.05718L7.94554 8.09286L7.88295 10.5011C7.85425 11.6053 6.93569 12.4844 5.8313 12.4647V12.4647Z" fill="white"/>
</svg>
